<?xml version="1.0" encoding="utf-8"?>
<!-- Generator: Adobe Illustrator 18.0.0, SVG Export Plug-In . SVG Version: 6.00 Build 0)  -->
<!DOCTYPE svg PUBLIC "-//W3C//DTD SVG 1.1//EN" "http://www.w3.org/Graphics/SVG/1.1/DTD/svg11.dtd">
<svg version="1.1" id="Слой_2" xmlns="http://www.w3.org/2000/svg" xmlns:xlink="http://www.w3.org/1999/xlink" x="0px" y="0px"
	 viewBox="218 305 1149 1199" enable-background="new 218 305 1149 1199" xml:space="preserve">
<path fill="#000000"    d="M1082.5,1416.9c-16.3-5.9-64.8-52.9-68.4-62.5
	c-3.8-9.6,2.3-30.5,10.4-63.2c8.2-32.8,45.4-110.9,45.4-110.9s11.9-3.8,20.9-10.4c9-6.7,1.5-34.3-0.8-47.7
	c-2.3-13.4,8.2-17.8,5.2-32c-2.9-14.2,6.7-31.2,5.9-70.7c-0.8-39.5-14.2-61.1-31.2-82.6c-17.1-21.6-84.1-14.2-125.1-14.9
	c-41-0.7-73,5.9-65.5,1.5c7.5-4.4,20.1-25.3,26.8-34.3s3.7-29.7,5.9-35c2.3-5.2,8.2-10.4,37.9-26.1c29.7-15.7,26.1-44.7,22.4-62.5
	c-3.8-17.8-20.9-53.6-19.4-67c1.5-13.4,4.4-45.4-8.2-67.8c-12.6-22.4-46.2-34.3-52.9-43.1c-6.7-9-29.7-37.9-29.7-37.9
	s20.9-50.6,23.8-62.5c2.9-11.9-5.9-10.4-3.7-20.9c2.3-10.4,4.4-9.6,9-13.4c4.4-3.7,11.1-14.2,19.4-24.5c8.2-10.4-5.9-32.8-5.9-32.8
	s154.8,7.5,209.2,9c54.4,1.5,246.4,13.4,246.4,13.4s-31.2-23-46.2-26.8c-14.9-3.8-106.5-8.2-155.6-12.6
	c-49.2-4.4-268.8-14.2-268.8-14.2s0,0-7.5-11.1c-7.5-11.1-28.1-20.9-50.6-31.2c-23.3-10.8-58.8-4.4-77.4,0c-18.6,4.4-32,32-32,32
	l-12.6-0.8l-4.4-20.1l-23.8-11.9l-2.3,19.4c0,0-3.7-5.9-8.2-15.7c-4.4-9.6-11.1-1.5-11.1-1.5s-8.2-10.4-14.9-13.1
	c-6.7-2.8-8.2,6.4-8.2,6.4s-17.1-2.9-23-6c-5.9-3.1-7.5,10.4-7.5,10.4s-7.5-2.3-11.9,0.8c-4.4,3.1-10.4,12.6-10.4,12.6l-14.2,2.3
	c0,0,0.8-4.4,1.5-6.7c0.8-2.3-9-11.1-22.4-15.7c-13.4-4.4-13.4,5.9-13.4,5.9s-5.9-3.7-21.6-8.7c-15.7-5-9,9.4-17.8,2.7
	c-9-6.7-29.7,0-30.5,8.2c-0.8,8.2-17.8,33.5-26.8,41c-9,7.5-46.2,20.1-70,37.2c-23.8,17.1-40.2,47.7-41.7,52.1s4.4,28.3,17.8,43.9
	c13.4,15.7,78.2,54.4,116.9,77.4s67.8,35,67.8,35s0,0,0,7.5c0,7.5,8.2,42.5,11.9,60.3c3.8,17.8,5.2,113.8,2.9,148.1
	c-2.3,34.3,2.3,77.4,8.2,92.3c5.9,14.9,22.4,20.9,21.6,26.8s-2.3,11.9-2.3,11.9l-30.5-5.2c0,0-4.4,0.8-27.6,0
	c-23-0.8-29.1,8.2-69.2,15.7c-40.2,7.5-108.8,26.8-154.8,38.7s-48.3,37.2-54.4,43.9c-5.9,6.7-8.2,22.4-5.9,41
	c2.3,18.6,43.1,63.2,55,85.6s17.1,57.3,17.1,57.3s10.4,0.8,18.6-2.3c8.2-2.9,37.9-10.4,37.9-10.4s53.6,47.7,59.6,46.2
	c5.9-1.5,17.1-0.8,17.1-0.8s12.6,6.7,26.1,17.8c13.4,11.1,48.3,39.5,57.3,49.8c9,10.4,5.9,35,2.3,54.4
	c-3.8,19.4-24.5,61.1-32.8,78.2c-8.3,17.1-4.4,30.5,1.5,32.8s23.8-11.1,40.2-26.1c16.3-15,48.3-47.7,56.5-63.2
	c8.2-15.5,30.5-37.9,49.2-59.6c18.6-21.6,20.1-41.7,16.3-44.7c-3.8-2.9-22.4-10.4-75.9-38.7c-53.6-28.3-80.4-73.7-85.6-79.7
	c-5.2-6,5.9-11.1,4.4-14.9c-1.5-3.8-27.6-25.3-27.6-25.3s9,1.5,20.9,5.2c11.9,3.8,31.2,10.4,43.9,14.2c12.6,3.8,4.4,9.6,4.4,17.8
	c0,8.2-10.4,35.8-10.4,35.8s32.8,9,66.3,15.7c33.5,6.7,99,7.5,99,7.5s23-12.6,48.3-23c0,0,26.8-5.9,43.1-7.5
	c16.3-1.5,32.8,6.7,38.7,11.1c5.9,4.4,6.7,6.7,37.9,5.9c31.2-0.8,81.2-11.9,81.2-11.9s1.5,75.1-0.8,99c-2.3,23.8-6.7,32.8-15.7,65.5
	c-9,32.8-2.3,55.8-2.3,55.8s39.5,3.8,53.6,3.8s37.2,2.9,45.4,8.2c8.2,5.2,51.4,28.3,63.2,35c11.9,6.7,34.3,2.3,49.8,1.5
	c15.7-0.8,4.4-19.4-5.2-37.2C1119,1431,1098.9,1422.8,1082.5,1416.9z M629.1,510.1c0,0-20.9-8.2-45.4-13.4s-64.8-5.9-64.8-5.9
	s-18.6-3.8-32-8.2c-13.4-4.4-46.2-25.3-46.2-25.3s1.5-5.2,5.9-14.2s37.9-29.7,37.9-29.7s4.4-1.5,9.6-0.7c5.2,0.8,17.8,2.3,27.6-3.8
	s23-28.3,23-28.3h38.7c0,0,0.8,15.7,0.8,23.8c0,8.2,13.4,28.3,17.1,33.5c3.7,5.2,17.1,19.4,27.6,34.3c10.4,14.9,25.3,37.9,25.3,37.9
	h-25.2V510.1z M705.8,458.8c0,0-18.6-23-21.6-35.8c-2.9-12.7,0-17.8,0-17.8l16.5-0.4l5.2-24.5l-1.6,25.7c3.5,3.6,0,17.8,1.5,29.1
	C707.3,446.1,705.8,458.8,705.8,458.8z"/>
</svg>
